                    <svg
                      width="31"
                      height="31"
                      viewBox="0 0 31 31"
                      fill="none"
                      xmlns="http://www.w3.org/2000/svg"
                    >
                      <circle cx="15.5" cy="15.5" r="15.5" fill="white" />
                      <path
                        d="M9.18926 23.0284H21.8107C22.3684 23.0276 22.903 22.8034 23.2973 22.4049C23.6917 22.0064 23.9135 21.4662 23.9143 20.9026V10.9826C23.9135 10.4191 23.6917 9.87886 23.2973 9.48037C22.903 9.08188 22.3684 8.85768 21.8107 8.85693H9.18926C8.63159 8.85768 8.09697 9.08188 7.70264 9.48037C7.3083 9.87886 7.08644 10.4191 7.08569 10.9826V20.9026C7.08644 21.4662 7.3083 22.0064 7.70264 22.4049C8.09697 22.8034 8.63159 23.0276 9.18926 23.0284V23.0284ZM19.7071 14.1098L22.5119 16.9441V20.9026C22.5116 21.0905 22.4377 21.2706 22.3062 21.4034C22.1748 21.5362 21.9966 21.611 21.8107 21.6112H9.18926C9.047 21.6101 8.90839 21.5656 8.79161 21.4835C8.67482 21.4014 8.58532 21.2855 8.53482 21.1511L12.6952 16.945L14.7988 19.0708L19.7071 14.1098ZM12.6952 15.527C12.5109 15.5264 12.3284 15.5627 12.1581 15.6339C11.9878 15.7051 11.8332 15.8097 11.7033 15.9417L8.48807 19.1917V10.9826C8.48832 10.7948 8.56228 10.6147 8.69372 10.4819C8.82517 10.3491 9.00337 10.2743 9.18926 10.2741H21.8107C21.9966 10.2743 22.1748 10.3491 22.3062 10.4819C22.4377 10.6147 22.5116 10.7948 22.5119 10.9826V14.9412L20.6981 13.1084C20.5683 12.9764 20.4139 12.8718 20.2438 12.8006C20.0737 12.7294 19.8912 12.693 19.7071 12.6936C19.523 12.6931 19.3406 12.7295 19.1705 12.8007C19.0004 12.8719 18.846 12.9765 18.7161 13.1084L14.7988 17.066L13.6862 15.9417C13.5564 15.8098 13.4019 15.7053 13.2318 15.6341C13.0617 15.5629 12.8793 15.5265 12.6952 15.527V15.527ZM11.2928 14.5255C11.6648 14.5255 12.0215 14.3762 12.2845 14.1104C12.5475 13.8447 12.6952 13.4842 12.6952 13.1084C12.6952 12.7325 12.5475 12.3721 12.2845 12.1063C12.0215 11.8405 11.6648 11.6912 11.2928 11.6912C10.9209 11.6912 10.5642 11.8405 10.3012 12.1063C10.0382 12.3721 9.89046 12.7325 9.89046 13.1084C9.89046 13.4842 10.0382 13.8447 10.3012 14.1104C10.5642 14.3762 10.9209 14.5255 11.2928 14.5255Z"
                        fill="black"
                      />
                    </svg>