<svg width="25" height="27" viewBox="0 0 25 27" fill="none" xmlns="http://www.w3.org/2000/svg">
<path d="M8.78609 23.0996V22.4322H3.77258C2.97494 22.431 2.21035 22.1135 1.6466 21.5492C1.08286 20.9849 0.766031 20.22 0.765644 19.4223V18.9134C0.763543 18.2777 0.93955 17.6541 1.27372 17.1133C1.60789 16.5725 2.08686 16.1361 2.65634 15.8536C2.91254 15.7269 3.13192 15.5366 3.29347 15.3008C3.45501 15.0651 3.55332 14.7918 3.57896 14.5071L4.17595 7.94172C4.36659 5.87558 5.32214 3.95517 6.85524 2.55701C8.38835 1.15885 10.3884 0.383789 12.4633 0.383789C14.5383 0.383789 16.5383 1.15885 18.0715 2.55701C19.6046 3.95517 20.5601 5.87558 20.7508 7.94172L21.3477 14.5071C21.3726 14.7908 21.47 15.0634 21.6305 15.2987C21.791 15.534 22.0093 15.7241 22.2645 15.8507C22.8352 16.133 23.3154 16.5696 23.6506 17.1109C23.9858 17.6522 24.1627 18.2767 24.1611 18.9134V19.4223C24.1603 20.2197 23.8433 20.9843 23.2796 21.5482C22.7159 22.1122 21.9515 22.4296 21.1541 22.4307H16.1391V23.0981C16.1199 24.0605 15.7241 24.9769 15.0367 25.6507C14.3493 26.3245 13.4252 26.702 12.4626 26.702C11.5001 26.702 10.5759 26.3245 9.8885 25.6507C9.20111 24.9769 8.80531 24.0605 8.78609 23.0981V23.0996ZM10.7912 23.0996C10.7912 23.5429 10.9673 23.968 11.2807 24.2815C11.5942 24.5949 12.0193 24.771 12.4626 24.771C12.9059 24.771 13.331 24.5949 13.6445 24.2815C13.9579 23.968 14.134 23.5429 14.134 23.0996V22.4322H10.7927L10.7912 23.0996ZM6.17226 8.1236L5.57527 14.689C5.52004 15.3138 5.30495 15.9139 4.9507 16.4315C4.59646 16.9491 4.11497 17.3669 3.55256 17.6446C3.31589 17.7613 3.11673 17.9421 2.97774 18.1664C2.83875 18.3907 2.76551 18.6495 2.76635 18.9134V19.4223C2.76635 19.6882 2.87186 19.9431 3.05969 20.1313C3.24753 20.3194 3.50234 20.4252 3.76818 20.4256H21.1541C21.4201 20.4252 21.6751 20.3194 21.8631 20.1313C22.0512 19.9433 22.157 19.6883 22.1574 19.4223V18.9134C22.1583 18.65 22.0853 18.3918 21.9469 18.1678C21.8084 17.9438 21.61 17.763 21.3741 17.646C20.812 17.3675 20.3306 16.9494 19.9762 16.4316C19.6218 15.9139 19.4062 15.3139 19.35 14.689L18.753 8.1236C18.6091 6.55457 17.884 5.09594 16.7202 4.0339C15.5563 2.97186 14.0375 2.38308 12.4619 2.38308C10.8863 2.38308 9.36751 2.97186 8.20361 4.0339C7.03972 5.09594 6.31469 6.55457 6.17079 8.1236H6.17226Z" fill="#141124"/>
</svg>
