<svg width="28" height="28" viewBox="0 0 28 28" xmlns="http://www.w3.org/2000/svg">
<path d="M2.52982 28C2.10892 27.9972 1.69532 27.8897 1.32628 27.6873C0.957252 27.4849 0.644381 27.1938 0.415856 26.8403C0.184599 26.4921 0.0447062 26.0913 0.00906851 25.6748C-0.0265692 25.2584 0.0431944 24.8396 0.211931 24.4572L1.848 20.6388C0.233964 17.6979 -0.264902 14.2735 0.443009 10.9943C1.15092 7.7152 3.01808 4.8015 5.70163 2.78827C8.38518 0.775048 11.705 -0.202549 15.0514 0.0349978C18.3978 0.272545 21.5462 1.70929 23.9184 4.0814C26.2906 6.45351 27.7274 9.60175 27.965 12.948C28.2026 16.2943 27.2249 19.6139 25.2116 22.2973C23.1983 24.9807 20.2844 26.8478 17.0051 27.5557C13.7258 28.2636 10.3012 27.7647 7.36019 26.1508L3.54166 27.7867C3.22242 27.926 2.87811 27.9985 2.52982 28ZM14.0726 2.51685C12.0445 2.51767 10.0532 3.05893 8.30383 4.0849C6.55441 5.11088 5.11003 6.58451 4.11935 8.3541C3.12868 10.1237 2.6275 12.1253 2.66742 14.1529C2.70734 16.1805 3.28691 18.1609 4.34647 19.8901L4.68893 20.4489L2.54228 25.4565L7.55011 23.31L8.11051 23.6524C9.61333 24.5733 11.3091 25.1335 13.0648 25.289C14.8204 25.4446 16.5883 25.1912 18.2296 24.5489C19.8709 23.9066 21.3411 22.8927 22.5248 21.5868C23.7085 20.281 24.5736 18.7186 25.0521 17.0223C25.5306 15.3261 25.6095 13.542 25.2827 11.8101C24.9559 10.0782 24.2323 8.44551 23.1686 7.04019C22.1049 5.63487 20.73 4.4951 19.1519 3.7103C17.5737 2.92549 15.8351 2.517 14.0726 2.51685ZM19.1458 17.7264H9.00249C8.6739 17.7149 8.36262 17.5763 8.13425 17.3398C7.90587 17.1033 7.77823 16.7873 7.77823 16.4586C7.77823 16.1298 7.90587 15.8139 8.13425 15.5774C8.36262 15.3408 8.6739 15.2022 9.00249 15.1907H19.1458C19.316 15.1847 19.4857 15.2131 19.6448 15.2742C19.8038 15.3352 19.9489 15.4276 20.0715 15.5459C20.194 15.6643 20.2915 15.806 20.3581 15.9628C20.4246 16.1196 20.4589 16.2882 20.4589 16.4586C20.4589 16.6289 20.4246 16.7975 20.3581 16.9543C20.2915 17.1111 20.194 17.2529 20.0715 17.3712C19.9489 17.4895 19.8038 17.5819 19.6448 17.643C19.4857 17.704 19.316 17.7324 19.1458 17.7264ZM12.807 12.6581H9.00249C8.6739 12.6466 8.36262 12.508 8.13425 12.2715C7.90587 12.035 7.77823 11.719 7.77823 11.3903C7.77823 11.0615 7.90587 10.7456 8.13425 10.5091C8.36262 10.2725 8.6739 10.1339 9.00249 10.1224H12.807C13.1356 10.1339 13.4469 10.2725 13.6752 10.5091C13.9036 10.7456 14.0313 11.0615 14.0313 11.3903C14.0313 11.719 13.9036 12.035 13.6752 12.2715C13.4469 12.508 13.1356 12.6466 12.807 12.6581Z" />
</svg>
