<svg
  width="5"
  height="23"
  viewBox="0 0 5 23"
  fill="none"
  xmlns="http://www.w3.org/2000/svg"
>
  <path
  d="M2.20019 17.6016C2.63535 17.6016 3.06074 17.7306 3.42256 17.9724C3.78438 18.2141 4.06638 18.5577 4.23291 18.9598C4.39944 19.3618 4.44301 19.8042 4.35811 20.231C4.27322 20.6578 4.06367 21.0498 3.75597 21.3575C3.44826 21.6652 3.05623 21.8748 2.62943 21.9597C2.20263 22.0446 1.76025 22.001 1.35822 21.8345C0.956182 21.6679 0.612559 21.3859 0.370798 21.0241C0.129037 20.6623 -1.83826e-06 20.2369 -1.81924e-06 19.8018C-1.79373e-06 19.2182 0.231804 18.6586 0.644421 18.246C1.05704 17.8334 1.61667 17.6016 2.20019 17.6016ZM2.20019 8.80078C2.63535 8.80078 3.06074 8.92982 3.42256 9.17158C3.78438 9.41334 4.06638 9.75696 4.23291 10.159C4.39944 10.561 4.44301 11.0034 4.35811 11.4302C4.27322 11.857 4.06367 12.249 3.75597 12.5568C3.44826 12.8645 3.05623 13.074 2.62943 13.1589C2.20263 13.2438 1.76025 13.2002 1.35822 13.0337C0.956182 12.8672 0.612559 12.5852 0.370799 12.2233C0.129038 11.8615 -1.45356e-06 11.4361 -1.43454e-06 11.001C-1.40904e-06 10.4174 0.231804 9.85782 0.644421 9.4452C1.05704 9.03259 1.61667 8.80078 2.20019 8.80078ZM2.20019 -9.61736e-08C2.63535 -7.71523e-08 3.06074 0.129039 3.42256 0.3708C3.78438 0.61256 4.06638 0.956184 4.23291 1.35822C4.39944 1.76025 4.44301 2.20264 4.35811 2.62943C4.27322 3.05623 4.06367 3.44827 3.75597 3.75597C3.44826 4.06367 3.05623 4.27322 2.62943 4.35811C2.20263 4.44301 1.76025 4.39944 1.35822 4.23291C0.956183 4.06638 0.612559 3.78438 0.370799 3.42256C0.129038 3.06074 -1.06887e-06 2.63535 -1.04985e-06 2.2002C-1.02434e-06 1.61667 0.231805 1.05704 0.644421 0.644422C1.05704 0.231805 1.61667 -1.2168e-07 2.20019 -9.61736e-08V-9.61736e-08Z"
  fill="#141124"
  />
</svg>