            <svg
              width="36"
              height="36"
              viewBox="0 0 30 30"
              fill="none"
              xmlns="http://www.w3.org/2000/svg"
            >
              <path
                d="M13.2222 9.07422C12.6699 9.07422 12.2222 9.52193 12.2222 10.0742C12.2222 10.6265 12.6699 11.0742 13.2222 11.0742V9.07422ZM27.3889 11.0742C27.9412 11.0742 28.3889 10.6265 28.3889 10.0742C28.3889 9.52193 27.9412 9.07422 27.3889 9.07422V11.0742ZM7.55554 9.07422C7.00326 9.07422 6.55554 9.52193 6.55554 10.0742C6.55554 10.6265 7.00326 11.0742 7.55554 11.0742V9.07422ZM8.97221 11.0742C9.52449 11.0742 9.97221 10.6265 9.97221 10.0742C9.97221 9.52193 9.52449 9.07422 8.97221 9.07422V11.0742ZM7.55554 16.1576C7.00326 16.1576 6.55554 16.6053 6.55554 17.1576C6.55554 17.7098 7.00326 18.1576 7.55554 18.1576V16.1576ZM8.97221 18.1576C9.52449 18.1576 9.97221 17.7098 9.97221 17.1576C9.97221 16.6053 9.52449 16.1576 8.97221 16.1576V18.1576ZM7.55554 23.2409C7.00326 23.2409 6.55554 23.6886 6.55554 24.2409C6.55554 24.7932 7.00326 25.2409 7.55554 25.2409V23.2409ZM8.97221 25.2409C9.52449 25.2409 9.97221 24.7932 9.97221 24.2409C9.97221 23.6886 9.52449 23.2409 8.97221 23.2409V25.2409ZM13.2222 16.1576C12.6699 16.1576 12.2222 16.6053 12.2222 17.1576C12.2222 17.7098 12.6699 18.1576 13.2222 18.1576V16.1576ZM27.3889 18.1576C27.9412 18.1576 28.3889 17.7098 28.3889 17.1576C28.3889 16.6053 27.9412 16.1576 27.3889 16.1576V18.1576ZM13.2222 23.2409C12.6699 23.2409 12.2222 23.6886 12.2222 24.2409C12.2222 24.7932 12.6699 25.2409 13.2222 25.2409V23.2409ZM27.3889 25.2409C27.9412 25.2409 28.3889 24.7932 28.3889 24.2409C28.3889 23.6886 27.9412 23.2409 27.3889 23.2409V25.2409ZM13.2222 11.0742H27.3889V9.07422H13.2222V11.0742ZM7.55554 11.0742H8.97221V9.07422H7.55554V11.0742ZM7.55554 18.1576H8.97221V16.1576H7.55554V18.1576ZM7.55554 25.2409H8.97221V23.2409H7.55554V25.2409ZM13.2222 18.1576H27.3889V16.1576H13.2222V18.1576ZM13.2222 25.2409H27.3889V23.2409H13.2222V25.2409Z"
                fill="black"
              />
            </svg>