          <svg
            width="10"
            height="20"
            viewBox="0 0 12 22"
            fill="none"
            xmlns="http://www.w3.org/2000/svg"
          >
            <path
              d="M11.5606 2.48233C11.6962 2.35109 11.805 2.19282 11.8805 2.01698C11.9559 1.84113 11.9965 1.65131 11.9998 1.45883C12.0031 1.26634 11.969 1.07515 11.8995 0.896649C11.8301 0.718149 11.7267 0.555999 11.5956 0.419873C11.4645 0.283747 11.3083 0.176433 11.1364 0.104334C10.9645 0.0322347 10.7804 -0.00317301 10.595 0.000223098C10.4096 0.00361921 10.2268 0.0457495 10.0574 0.124101C9.88803 0.202452 9.73561 0.315419 9.60921 0.456263L0.404703 10.0132C0.276402 10.1463 0.174623 10.3044 0.105182 10.4784C0.0357416 10.6523 0 10.8388 0 11.0272C0 11.2155 0.0357416 11.402 0.105182 11.576C0.174623 11.7499 0.276402 11.908 0.404703 12.0411L9.60921 21.5981C9.86972 21.8591 10.2186 22.0034 10.5806 21.9999C10.9426 21.9965 11.2888 21.8456 11.5447 21.5796C11.8005 21.3137 11.9456 20.9541 11.9485 20.5782C11.9515 20.2024 11.8122 19.8403 11.5606 19.5701L3.33358 11.0262L11.5606 2.48233Z"
              fill="black"
            />
          </svg>