<svg width="31" height="28" viewBox="0 0 31 28" xmlns="http://www.w3.org/2000/svg">
<path d="M23.2508 28H7.75118C6.72389 27.9987 5.73904 27.5871 5.01263 26.8556C4.28623 26.124 3.87756 25.1322 3.87627 24.0977V10.8067L2.0522 12.1426C1.83213 12.305 1.56637 12.3925 1.29354 12.3923C1.02048 12.3926 0.754346 12.3058 0.533333 12.1443C0.31232 11.9828 0.147786 11.7549 0.0633422 11.4934C-0.0211016 11.2319 -0.0211144 10.9502 0.0633058 10.6887C0.147726 10.4271 0.312239 10.1993 0.533238 10.0378L13.2168 0.746098C13.8793 0.261186 14.6772 0 15.4961 0C16.315 0 17.1129 0.261186 17.7754 0.746098L30.4671 10.0378C30.6045 10.1381 30.7209 10.2647 30.8096 10.4104C30.8983 10.5561 30.9576 10.718 30.9841 10.8868C31.0107 11.0555 31.0039 11.228 30.9641 11.3941C30.9244 11.5602 30.8526 11.7169 30.7527 11.855C30.6319 12.0203 30.4745 12.1548 30.2929 12.2479C30.1113 12.3409 29.9106 12.3898 29.7068 12.3907C29.434 12.3912 29.1681 12.3036 28.9482 12.1409L27.1241 10.8051V24.0944C27.1237 25.1292 26.7156 26.1216 25.9895 26.8538C25.2633 27.5861 24.2784 27.9983 23.2508 28ZM14.2088 13.692H16.7916C17.8187 13.6929 18.8035 14.1041 19.53 14.8353C20.2565 15.5666 20.6652 16.5583 20.6665 17.5927V25.3973H23.2508C23.5934 25.3969 23.9218 25.2597 24.1641 25.0157C24.4063 24.7718 24.5426 24.441 24.543 24.096V8.91553L16.2613 2.84761C16.0403 2.68596 15.7741 2.5989 15.501 2.5989C15.2279 2.5989 14.9617 2.68596 14.7407 2.84761L6.459 8.91553V24.096C6.45943 24.441 6.59571 24.7718 6.83795 25.0157C7.08018 25.2597 7.4086 25.3969 7.75118 25.3973H10.3339V17.5927C10.3352 16.5583 10.7439 15.5666 11.4704 14.8353C12.1968 14.1041 13.1817 13.6929 14.2088 13.692ZM14.2088 16.293C13.8664 16.293 13.538 16.4299 13.2957 16.6736C13.0534 16.9173 12.9171 17.2478 12.9166 17.5927V25.3973H18.0837V17.5927C18.0833 17.2478 17.947 16.9173 17.7047 16.6736C17.4624 16.4299 17.134 16.293 16.7916 16.293H14.2088Z"/>
</svg>
