<svg width="28" height="28" viewBox="0 0 28 28" xmlns="http://www.w3.org/2000/svg">
<path d="M0 14C0 11.2311 0.821085 8.52431 2.35942 6.22202C3.89776 3.91973 6.08426 2.12532 8.64243 1.06569C11.2006 0.00606596 14.0155 -0.271181 16.7313 0.269012C19.447 0.809205 21.9416 2.14258 23.8995 4.10051C25.8574 6.05845 27.1908 8.55301 27.731 11.2687C28.2712 13.9845 27.9939 16.7994 26.9343 19.3576C25.8747 21.9157 24.0803 24.1022 21.778 25.6406C19.4757 27.1789 16.7689 28 14 28C10.2882 27.9959 6.72967 26.5196 4.10505 23.8949C1.48043 21.2703 0.00411733 17.7118 0 14ZM14 25.8471C16.9257 25.8498 19.7481 24.7654 21.9193 22.8044C21.3116 22.3214 20.6189 21.9563 19.8769 21.728C19.7213 21.6689 19.5471 21.6113 19.3356 21.5398L18.7818 21.3531C16.7782 20.6764 15.876 20.1304 15.4887 18.8518C15.4557 18.7467 15.4292 18.6397 15.4093 18.5313C15.2722 17.8577 15.3416 17.1583 15.6084 16.5247C15.7965 16.0826 16.0865 15.6914 16.4547 15.3829C16.943 14.9875 17.3325 14.4837 17.5923 13.9116C17.852 13.3394 17.9749 12.7146 17.9511 12.0867C17.9673 11.552 17.8778 11.0195 17.6879 10.5194C17.498 10.0194 17.2114 9.56176 16.8444 9.17265C16.4774 8.78355 16.0372 8.47064 15.5492 8.25185C15.0611 8.03305 14.5347 7.91266 14 7.89756C13.4637 7.90706 12.9347 8.02368 12.4441 8.24058C11.9535 8.45747 11.5112 8.77026 11.1432 9.16055C10.7752 9.55084 10.489 10.0108 10.3013 10.5133C10.1137 11.0158 10.0284 11.5507 10.0504 12.0867C10.027 12.7045 10.1442 13.3195 10.3932 13.8854C10.6422 14.4513 11.0164 14.9532 11.4878 15.3533C11.8242 15.6285 12.1024 15.968 12.306 16.352C12.6633 17.0296 12.7644 17.8133 12.5907 18.5593C12.5756 18.6422 12.5543 18.7239 12.5269 18.8036C12.1878 20.0636 11.3104 20.6033 9.38622 21.2613L8.74689 21.4776C8.498 21.5616 8.30355 21.6331 8.12466 21.6969C7.38121 21.9344 6.6893 22.3101 6.08533 22.8044C8.25546 24.7642 11.0759 25.8485 14 25.8471ZM20.1024 12.0867C20.1247 13.0224 19.9351 13.951 19.5477 14.8031C19.1603 15.6551 18.5853 16.4085 17.8655 17.0069C17.7444 17.1043 17.6488 17.2298 17.5871 17.3724C17.4936 17.6131 17.472 17.8757 17.5249 18.1284C17.5295 18.1552 17.5357 18.1817 17.5436 18.2078C17.654 18.5718 18.1284 18.858 19.4693 19.3122L20.0216 19.4958C20.2487 19.572 20.4307 19.6358 20.6064 19.698C21.6241 20.0172 22.5688 20.5342 23.3862 21.2193C24.7362 19.466 25.5682 17.3695 25.7878 15.1676C26.0075 12.9656 25.606 10.7462 24.6289 8.76068C23.6518 6.7752 22.1382 5.10306 20.2595 3.93373C18.3808 2.7644 16.2121 2.14462 13.9992 2.14462C11.7863 2.14462 9.61768 2.7644 7.73898 3.93373C5.86028 5.10306 4.34663 6.7752 3.36954 8.76068C2.39245 10.7462 1.99097 12.9656 2.21061 15.1676C2.43024 17.3695 3.2622 19.466 4.61222 21.2193C5.42243 20.5293 6.35992 20.0045 7.37178 19.6747C7.57711 19.5984 7.78866 19.5191 8.05311 19.4351L8.68933 19.2204C9.93377 18.7958 10.3709 18.5251 10.4767 18.1487C10.4767 18.158 10.4767 18.1409 10.486 18.1004C10.5463 17.8494 10.5165 17.5852 10.402 17.3538C10.3156 17.2026 10.1998 17.0704 10.0613 16.9649C9.36245 16.3623 8.80589 15.6123 8.43173 14.7687C8.05758 13.9252 7.87514 13.0092 7.89755 12.0867C7.87521 11.2678 8.01603 10.4528 8.31181 9.68891C8.60759 8.92505 9.05241 8.22769 9.62036 7.63744C10.1883 7.04719 10.868 6.57586 11.62 6.2509C12.3719 5.92594 13.1809 5.75386 14 5.74467C14.8172 5.76025 15.6232 5.93667 16.3722 6.26384C17.1212 6.59102 17.7983 7.06254 18.365 7.65148C18.9317 8.24042 19.3768 8.93524 19.6749 9.69624C19.9731 10.4572 20.1183 11.2695 20.1024 12.0867Z"/>
</svg>
