<svg
width="18"
height="18"
viewBox="0 0 18 18"
fill="none"
xmlns="http://www.w3.org/2000/svg"
>
<path
d="M4.19739 18H0.812264C0.596933 17.9997 0.390507 17.914 0.238245 17.7617C0.0859831 17.6094 0.000311476 17.403 1.38518e-05 17.1876V13.8006C-0.00106965 13.4806 0.0614222 13.1634 0.183862 12.8677C0.306302 12.572 0.486251 12.3035 0.713264 12.0779L12.0758 0.713089C12.5325 0.256494 13.1518 0 13.7976 0C14.4433 0 15.0627 0.256494 15.5194 0.713089L17.2879 2.47182C17.7439 2.92913 18 3.54866 18 4.19455C18 4.84044 17.7439 5.45997 17.2879 5.91728L5.92539 17.2821C5.69927 17.5103 5.43007 17.6913 5.13342 17.8145C4.83678 17.9377 4.51861 18.0008 4.19739 18ZM10.5548 4.53099L1.86189 13.2268C1.78638 13.302 1.72653 13.3914 1.68578 13.4899C1.64504 13.5884 1.62422 13.694 1.62451 13.8006V16.3763H4.19739C4.30414 16.3767 4.40991 16.3559 4.50859 16.3151C4.60726 16.2744 4.69688 16.2145 4.77226 16.1389L13.4651 7.44421L10.5548 4.53099ZM13.8026 1.62002C13.6959 1.6197 13.5901 1.64051 13.4915 1.68126C13.3928 1.72201 13.3032 1.78189 13.2278 1.85745L11.7 3.38326L14.6138 6.2976L16.1393 4.77179C16.2907 4.61919 16.3756 4.41292 16.3756 4.19793C16.3756 3.98293 16.2907 3.77666 16.1393 3.62406L14.3753 1.85745C14.3001 1.78187 14.2107 1.72197 14.1122 1.68122C14.0137 1.64046 13.9081 1.61966 13.8015 1.62002H13.8026Z"
fill="black"
/>
</svg>