                    <svg
                      width="17"
                      height="17"
                      viewBox="0 0 17 17"
                      fill="none"
                      xmlns="http://www.w3.org/2000/svg"
                    >
                      <path
                        d="M7.33398 15.7681V9.53418H1.1001C0.808334 9.53418 0.52852 9.41828 0.322211 9.21197C0.115903 9.00566 0 8.72585 0 8.43408C0 8.14232 0.115903 7.8625 0.322211 7.6562C0.52852 7.44989 0.808334 7.33398 1.1001 7.33398H7.33398V1.1001C7.33398 0.808334 7.44989 0.52852 7.6562 0.322211C7.8625 0.115903 8.14232 0 8.43408 0C8.72585 0 9.00566 0.115903 9.21197 0.322211C9.41828 0.52852 9.53418 0.808334 9.53418 1.1001V7.33398H15.7681C16.0598 7.33398 16.3396 7.44989 16.546 7.6562C16.7523 7.8625 16.8682 8.14232 16.8682 8.43408C16.8682 8.72585 16.7523 9.00566 16.546 9.21197C16.3396 9.41828 16.0598 9.53418 15.7681 9.53418H9.53418V15.7681C9.53418 16.0598 9.41828 16.3396 9.21197 16.546C9.00566 16.7523 8.72585 16.8682 8.43408 16.8682C8.14232 16.8682 7.8625 16.7523 7.6562 16.546C7.44989 16.3396 7.33398 16.0598 7.33398 15.7681Z"
                        fill="#C2C2C2"
                      />
                    </svg>