<svg
width="18"
height="18"
viewBox="0 0 18 11"
fill="none"
xmlns="http://www.w3.org/2000/svg"
>
<path
  d="M15.393 10.0142C15.6016 10.2085 15.8774 10.3143 16.1624 10.3093C16.4474 10.3043 16.7193 10.1888 16.9209 9.98727C17.1224 9.78571 17.2379 9.51379 17.2429 9.22879C17.2479 8.94379 17.1422 8.66796 16.9478 8.45942L9.61385 1.12544C9.40758 0.919426 9.12798 0.803711 8.83645 0.803711C8.54492 0.803711 8.26532 0.919426 8.05905 1.12544L0.725064 8.45942C0.530743 8.66796 0.424952 8.94379 0.429981 9.22879C0.435009 9.51379 0.550464 9.78571 0.752021 9.98727C0.953578 10.1888 1.2255 10.3043 1.5105 10.3093C1.7955 10.3143 2.07133 10.2085 2.27987 10.0142L8.83645 3.45765L15.393 10.0142Z"
  fill="white"
/>
</svg>