<svg width="28" height="28" viewBox="0 0 28 28" xmlns="http://www.w3.org/2000/svg">
<path d="M6.52927 28H1.26352C0.928563 27.9995 0.607455 27.8662 0.370603 27.6293C0.133752 27.3924 0.000484518 27.0713 2.15472e-05 26.7362V21.4677C-0.00166391 20.9697 0.0955457 20.4765 0.286008 20.0164C0.47647 19.5564 0.756391 19.1388 1.10952 18.7879L18.7845 1.10925C19.495 0.39899 20.4584 0 21.4629 0C22.4674 0 23.4308 0.39899 24.1413 1.10925L26.8923 3.84506C27.6016 4.55643 28 5.52014 28 6.52486C28 7.52957 27.6016 8.49328 26.8923 9.20465L9.21727 26.8833C8.86553 27.2382 8.44677 27.5197 7.98533 27.7115C7.52388 27.9032 7.02894 28.0012 6.52927 28ZM16.4185 7.04821L2.89627 20.575C2.77881 20.692 2.68571 20.8311 2.62233 20.9844C2.55895 21.1376 2.52656 21.3018 2.52702 21.4677V25.4742H6.52927C6.69533 25.4748 6.85987 25.4425 7.01336 25.3791C7.16685 25.3157 7.30626 25.2225 7.42352 25.1049L20.9458 11.5799L16.4185 7.04821ZM21.4708 2.52004C21.3047 2.51953 21.1402 2.55191 20.9867 2.6153C20.8333 2.67868 20.6938 2.77183 20.5765 2.88936L18.2 5.26285L22.7325 9.79627L25.1055 7.42279C25.3411 7.18541 25.4732 6.86454 25.4732 6.53011C25.4732 6.19567 25.3411 5.8748 25.1055 5.63742L22.3615 2.88936C22.2446 2.7718 22.1055 2.67863 21.9523 2.61523C21.7991 2.55183 21.6348 2.51948 21.469 2.52004H21.4708Z"/>
</svg>
