<svg xmlns="http://www.w3.org/2000/svg" data-name="Layer 1" id="Layer_1" viewBox="0 0 512 512"><defs><style>.cls-1{fill:#271302;}.cls-2{fill:#ff7c01;}</style></defs><rect class="cls-1" height="419.17" rx="96.06" width="432" x="40" y="46.42"/><rect class="cls-1" height="379.17" rx="76.06" width="392" x="60" y="66.42"/><path class="cls-2" d="M191.35,291.18l-12.19,37.6a2.75,2.75,0,0,1-2.79,2H146.9c-1.78,0-2.29-1-2-2.54l50.8-146.58c1-2.79,2-5.84,2.54-15.49a1.7,1.7,0,0,1,1.53-1.78h40.64c1.27,0,1.78.25,2,1.52l57.67,162.58c.51,1.27.25,2.29-1.27,2.29h-33A2.56,2.56,0,0,1,263,329l-13-37.85Zm49.29-31.75c-5.08-16.77-15.25-47.51-20.07-65.54h-.26c-4.06,17-13.21,45-19.81,65.54Z"/><path class="cls-2" d="M315.32,171.28c0-11.43,8.38-19.56,19.81-19.56,12.19,0,19.56,8.13,19.56,19.56,0,11.94-7.87,19.81-19.81,19.81S315.32,183.22,315.32,171.28Zm1.77,35.31c0-1.27.51-2,2-2h31.24c1.53,0,2,.5,2,2V328.52c0,1.53-.25,2.29-2.28,2.29H319.63c-1.77,0-2.54-.76-2.54-2.29Z"/></svg>